<?xml version="1.0" encoding="utf-8"?>
<!-- Generator: Adobe Illustrator 24.0.0, SVG Export Plug-In . SVG Version: 6.00 Build 0)  -->
<svg version="1.1" xmlns="http://www.w3.org/2000/svg" xmlns:xlink="http://www.w3.org/1999/xlink" x="0px" y="0px"
	viewBox="0 0 750 500" style="enable-background:new 0 0 750 500;" xml:space="preserve">
<style type="text/css">
	.st0{fill:#229585;}
	.st1{clip-path:url(#SVGID_2_);fill:url(#SVGID_3_);}
</style>
<g id="BACKGROUND">
	<rect class="st0" width="750" height="500"/>
</g>
<g id="OBJECTS">
	<g>
		<defs>
			<rect id="SVGID_1_" width="750" height="500"/>
		</defs>
		<clipPath id="SVGID_2_">
			<use xlink:href="#SVGID_1_"  style="overflow:visible;"/>
		</clipPath>
		<linearGradient id="SVGID_3_" gradientUnits="userSpaceOnUse" x1="131.1625" y1="609.306" x2="642.7209" y2="-128.9247">
			<stop  offset="0" style="stop-color:#C8CACC"/>
			<stop  offset="0.1387" style="stop-color:#D5D6D7"/>
			<stop  offset="0.3812" style="stop-color:#E4E5E6"/>
			<stop  offset="0.5713" style="stop-color:#EAEBEB"/>
			<stop  offset="0.7471" style="stop-color:#EEEFEF"/>
			<stop  offset="0.9274" style="stop-color:#FAFAFB"/>
			<stop  offset="0.976" style="stop-color:#FFFFFF"/>
		</linearGradient>
		<path class="st1" d="M391.88,473.85v-30.89l-29.14-16.82v33.07l-27.14,15.67v-32.49l-28.64,16.53l-27.64-15.95v-30.31
			c0.84-0.22,1.46-0.98,1.46-1.89c0-0.18-0.03-0.35-0.08-0.51l26.5-15.3l0.25-0.14v-33.64l-28.63,16.53l-28.14-16.25l-28.14,16.24
			l-27.64-15.96v-31.91l28.64-16.53l-28.64-16.53V263.7l-28.89,16.68l-0.25,0.14v31.91l-25.75-14.87c0.04-0.16,0.08-0.33,0.08-0.51
			c0-0.91-0.62-1.67-1.46-1.89v-62.8l27.89-16.1l0.25-0.14v-33.64l-28.89,16.68l-0.25,0.14v32.49l-27.64,15.96l-27.14-15.67
			l27.39-15.81l0.25-0.14v-33.64l-28.89,16.68l-0.25,0.14v64.4l-25.75-14.87c0.04-0.16,0.08-0.33,0.08-0.51
			c0-0.91-0.62-1.67-1.46-1.89v-30.89L26.61,199.6l27.14-15.67l0.5,0.29v-0.58l0.5-0.29l-0.5-0.29v-32.49L27.5,135.13
			c0.04-0.16,0.08-0.33,0.08-0.51c0-1.08-0.88-1.96-1.96-1.96c-1.08,0-1.96,0.88-1.96,1.96c0,0.91,0.62,1.67,1.46,1.89v30.31
			l-28.64,16.53l28.14,16.24l-27.39,15.81l-0.25,0.14v32.49l-0.5,0.29l0.5,0.29v32.49l27.62,15.95l-27.4,15.82l-0.25,0.14v33.64
			l28.89-16.68l0.25-0.14v-31.92l0.02,0.01v-33.07l26.24-15.15c0.24,0.24,0.55,0.42,0.89,0.51v30.89l27.64,15.95L53.5,312.87
			l-0.25,0.14v32.5l-26.22,15.14c-0.36-0.36-0.85-0.58-1.39-0.58c-1.08,0-1.96,0.88-1.96,1.96c0,0.91,0.62,1.67,1.46,1.89v62.76
			L-2.8,442.81l-0.25,0.14v33.64l0.04-0.03v31.94l28.14,16.24v0.58l0.5-0.29l0.5,0.29v-0.58l27.89-16.1l0.25-0.14v-33.64
			l-27.24,15.73c-0.36-0.36-0.85-0.58-1.39-0.58c-0.55,0-1.04,0.22-1.39,0.58l-25.77-14.88l26.66-15.39v0.03l28.64-16.53
			l28.64,16.53v-33.08l27.86-16.09l0.25-0.14v-30.89c0.84-0.22,1.46-0.98,1.46-1.89c0-1.08-0.88-1.96-1.96-1.96
			s-1.96,0.88-1.96,1.96c0,0.18,0.03,0.35,0.08,0.51l-26.5,15.3l-0.25,0.14v31.9l-27.11-15.65v-64.41l27.61-15.94l28.64,16.53
			v-33.06l26.24-15.15c0.24,0.24,0.55,0.42,0.89,0.51v30.89l26.75,15.44c-0.04,0.16-0.08,0.33-0.08,0.51c0,0.18,0.03,0.35,0.08,0.51
			l-26.5,15.3l-0.25,0.14v64.94l-26.08,15.06c-0.36-0.5-0.94-0.83-1.6-0.83c-1.08,0-1.96,0.88-1.96,1.96c0,0.91,0.62,1.67,1.46,1.89
			v31.83l28.14-16.24v31.91l29.14,16.82v-33.64l-27.61-15.94l27.15-15.68l26.25,15.15c-0.04,0.16-0.08,0.33-0.08,0.51
			c0,1.08,0.88,1.96,1.96,1.96c1.08,0,1.96-0.88,1.96-1.96c0-0.91-0.62-1.67-1.46-1.89v-62.79l27.64-15.96l27.14,15.67l-27.39,15.81
			l-0.25,0.14v32.49l-0.5,0.29l0.5,0.29v31.91l-27.89,16.1l-0.25,0.14v33.64l28.89-16.68l0.25-0.14v-31.91l27.14,15.67v0.58
			l0.5-0.29l28.64,16.53v-31.46c0.34-0.09,0.65-0.27,0.89-0.51l26.24,15.15v33.06l28.14-16.24v0.01l28.89-16.68l0.25-0.14v-31.91
			l25.75,14.87c-0.04,0.16-0.08,0.33-0.08,0.51c0,1.08,0.88,1.96,1.96,1.96c1.08,0,1.96-0.88,1.96-1.96
			C393.34,474.83,392.72,474.07,391.88,473.85z M82.38,199.88l27.14-15.67v31.33l-27.14,15.67V199.88z M25.09,329.26l-27.14,15.67
			v-31.33l27.14-15.67V329.26z M53.27,476.6v31.33L26.13,523.6v-29.73c0.84-0.22,1.46-0.98,1.46-1.89c0-0.18-0.03-0.35-0.08-0.51
			L53.27,476.6z M25.13,493.87v29.73L-2,507.93V476.6l25.75,14.87c-0.04,0.16-0.08,0.33-0.08,0.51
			C23.67,492.89,24.29,493.64,25.13,493.87z M334.61,475.44l-27.14,15.67v-31.33l27.14-15.67V475.44z M278.33,473.85
			c-0.34,0.09-0.65,0.26-0.89,0.51L251.7,459.5l26.64-15.38V473.85z M251.2,426.72v-31.33l25.75,14.87
			c-0.04,0.16-0.08,0.33-0.08,0.51c0,0.91,0.62,1.67,1.46,1.89v29.73L251.2,426.72z M278.33,408.87c-0.34,0.09-0.65,0.27-0.89,0.51
			l-25.74-14.86l26.64-15.38V408.87z M250.7,427.59l27.14,15.67l-12.33,7.12l-14.81,8.55l-27.14-15.67l12.33-7.12L250.7,427.59z
			 M251.2,460.36l25.75,14.87c-0.04,0.16-0.08,0.33-0.08,0.51c0,0.18,0.03,0.35,0.08,0.51l-25.75,14.87V460.36z M306.47,394.23
			l-26.24,15.15c-0.24-0.24-0.55-0.42-0.89-0.51v-30.31l27.14-15.67V394.23z M166.79,343.9v-29.73l27.14,15.67v31.33l-25.75-14.87
			c0.04-0.16,0.08-0.33,0.08-0.51C168.25,344.88,167.63,344.12,166.79,343.9z M166.79,347.68c0.34-0.09,0.65-0.27,0.89-0.51
			l25.74,14.86l-26.63,15.38V347.68z M194.43,328.97l-27.14-15.67l13.31-7.68l13.83-7.98l27.14,15.67L194.43,328.97z M166.79,281.1
			l27.14-15.67v31.33l-27.14,15.67V281.1z M138.65,199.88l27.14-15.67v31.33l-27.14,15.67V199.88z M137.65,264.28l-8.88,5.13
			l-18.26,10.54v-31.33l27.14-15.67V264.28z M109.52,312.43l-13.57-7.83l-13.57-7.83v-31.33l13.57,7.83l13.57,7.83V312.43z
			 M82.38,232.95l27.14,15.67v31.33l-13.57-7.83l-13.57-7.83V232.95z M53.25,246.44c-0.34,0.09-0.65,0.26-0.89,0.51l-26.24-15.15
			v-31.33l27.14,15.67V246.44z M53.25,151.15v31.33l-27.14-15.67v-30.31c0.34-0.09,0.65-0.26,0.89-0.51L53.25,151.15z M25.61,167.68
			l27.14,15.67l-26.64,15.38v0l-0.5,0.29l-0.5-0.29v0l-26.64-15.38L25.61,167.68z M-2.03,216.13l27.14-15.67v31.33l-27.14,15.67
			V216.13z M-2.03,249.19l27.14,15.67v31.33l-27.14-15.67V249.19z M25.61,264l-27.14-15.67l12.33-7.12l14.81-8.55l26.25,15.15
			c-0.04,0.16-0.08,0.33-0.08,0.51c0,0.18,0.03,0.35,0.08,0.51L25.61,264z M54.25,250.22c0.34-0.09,0.65-0.26,0.89-0.51l26.24,15.15
			v31.33l-27.14-15.67V250.22z M54.25,313.59l27.14-15.67v31.33l-27.14,15.67V313.59z M26.13,363.92c0.84-0.22,1.46-0.98,1.46-1.89
			c0-0.18-0.03-0.35-0.08-0.51l25.75-14.87v31.33l-27.14,15.67V363.92z M53.27,410.48l-27.14,15.67v-31.33l27.14-15.67V410.48z
			 M25.09,459.2l-27.14,15.67v-31.33l27.14-15.67V459.2z M26.13,427.3l27.14-15.67v31.33l-27.14,15.67V427.3z M82.38,394.81
			l26.24-15.15c0.24,0.24,0.55,0.42,0.89,0.51v30.31l-27.14,15.67V394.81z M81.4,427.86v30.77l-27.14-15.67v-31.33l27.11,15.65v0.59
			L81.4,427.86z M109.52,344.92l-27.14-15.67v-31.33l13.57,7.83l13.57,7.83V344.92z M110.52,312.44V281.1l15.51-8.95l11.63-6.71
			v29.73c-0.84,0.22-1.46,0.98-1.46,1.89c0,0.18,0.03,0.35,0.08,0.51L110.52,312.44z M138.65,329.26v-30.31
			c0.34-0.09,0.65-0.26,0.89-0.51l26.24,15.15v30.31c-0.34,0.09-0.65,0.26-0.89,0.51L138.65,329.26z M138.65,362.32l26.24-15.15
			c0.24,0.24,0.55,0.42,0.89,0.51v30.31l-0.5,0.29l0,0l-26.64,15.38V362.32z M138.65,427.3l27.14-15.67v31.33l-27.14,15.67V427.3z
			 M165.79,410.48l-27.14,15.67v-31.33l27.14-15.67V410.48z M110.47,474.87v-30.09c0.84-0.22,1.46-0.98,1.46-1.89
			c0-0.06-0.01-0.12-0.02-0.18l25.69-14.83v31.33L110.47,474.87z M165.75,507.35l-27.14-15.67v-31.33l27.14,15.67V507.35z
			 M193.93,457.6c-0.34,0.09-0.65,0.26-0.89,0.51l-26.24-15.15v-31.33l27.14,15.67V457.6z M166.79,410.48v-31.33l27.14,15.67v31.33
			L166.79,410.48z M194.43,393.94l-27.14-15.67l27.13-15.67l0.5,0.29v0l26.64,15.38L194.43,393.94z M250.7,362.61l27.14,15.67
			l-26.64,15.38v0l-0.5,0.29l-0.5-0.29v0l-26.64-15.38L250.7,362.61z M223.06,411.05l27.14-15.67v31.33l-27.14,15.67V411.05z
			 M222.06,507.94l-27.14,15.67v-31.33l27.14-15.67V507.94z M223.06,475.45v-31.33l27.14,15.67v31.33L223.06,475.45z M251.7,491.99
			l25.74-14.86c0.24,0.24,0.55,0.42,0.89,0.51v29.73L251.7,491.99z M279.33,473.85v-29.73l27.14,15.67v31.33l-25.75-14.87
			c0.04-0.16,0.08-0.33,0.08-0.51C280.8,474.83,280.17,474.07,279.33,473.85z M307.47,523.6v-31.32l27.14-15.67v31.33L307.47,523.6z
			 M362.74,491.7l-27.14,15.67v-31.33l27.14-15.67V491.7z M363.74,459.21v-31.33l27.14,15.67v30.31c-0.34,0.09-0.65,0.26-0.89,0.51
			L363.74,459.21z M758.17,270.39l-28.14-16.24l27.39-15.81l0.25-0.14V205.7l0.5-0.29l-0.5-0.29v-32.49l-27.62-15.95l27.4-15.82
			l0.25-0.14v-33.64l-28.89,16.68l-0.25,0.14v31.92l-0.02-0.01v33.07l-26.24,15.15c-0.24-0.24-0.55-0.42-0.89-0.51v-63.37
			l-28.14-16.24V91.42l-26.75-15.44c0.05-0.17,0.08-0.34,0.08-0.52c0-0.18-0.03-0.35-0.08-0.51l26.5-15.3l0.25-0.14v-31.9
			l27.11,15.65v65.55l27.24-15.73c0.36,0.36,0.85,0.58,1.39,0.58c1.08,0,1.96-0.88,1.96-1.96c0-0.91-0.62-1.67-1.46-1.89V27.05
			l27.93-16.13l0.25-0.14v-33.64L729.51-6.59v-0.03L700.87,9.91L672.24-6.62v33.08l-27.86,16.09l-0.25,0.14v30.89
			c-0.84,0.22-1.46,0.98-1.46,1.89c0,0.91,0.62,1.67,1.46,1.89v30.89l28.14,16.24v31.91l-27.14,15.67v-31.91l-28.14-16.24v-0.58
			l-0.5,0.29l-0.5-0.29v0.58L588.1,140l-0.25,0.14v33.64l27.24-15.73c0.36,0.36,0.85,0.58,1.39,0.58s1.04-0.22,1.39-0.58
			l26.24,15.15v65.56l28.64-16.53l27.64,15.95l0,0l27.64,15.96l-27.14,15.67l-0.5-0.29v0.58l-0.5,0.29l0.5,0.29v32.49l28.14,16.24
			v30.31c-0.84,0.22-1.46,0.98-1.46,1.89c0,1.08,0.88,1.96,1.96,1.96c1.08,0,1.96-0.88,1.96-1.96c0-0.18-0.03-0.35-0.08-0.51
			l26.5-15.3l0.25-0.14v-33.64l-28.14,16.24v-31.33L758.17,270.39z M729.55,124.48l27.14-15.67v31.33l-27.14,15.67V124.48z
			 M756.67,237.61l-27.14,15.67v-31.33l27.14-15.67V237.61z M756.67,204.54l-27.14-15.67v-31.33l27.14,15.67V204.54z M729.03,189.74
			l27.14,15.67l-12.33,7.12l-14.81,8.55l-26.25-15.16c0.04-0.16,0.08-0.33,0.08-0.51c0-0.18-0.03-0.35-0.08-0.51L729.03,189.74z
			 M700.4,173.21v30.3c-0.34,0.09-0.65,0.27-0.89,0.51l-12.67-7.32l-13.57-7.83v-31.33l13.57,7.83L700.4,173.21z M701.37,43.26
			l27.14-15.67v31.33l-27.14,15.67V43.26z M701.37,107.08V75.75l27.14-15.67v29.73c-0.84,0.22-1.46,0.98-1.46,1.89
			c0,0.18,0.03,0.35,0.08,0.51L701.37,107.08z M729.55-5.46l27.14-15.67V10.2l-27.14,15.67V-5.46z M728.51,26.44l-27.14,15.67V10.78
			l27.14-15.67V26.44z M673.24-4.89l27.14,15.67v31.33l-27.11-15.65v-0.59l-0.02,0.01V-4.89z M672.26,27.6v31.33l-26.24,15.15
			c-0.24-0.24-0.55-0.42-0.89-0.51V43.26L672.26,27.6z M645.12,107.66V77.35c0.34-0.09,0.65-0.26,0.89-0.51L672.26,92v31.33
			L645.12,107.66z M700.4,140.73v31.33l-13.57-7.83l-13.57-7.83v-31.33L700.4,140.73z M588.85,172.05v-31.33l27.14-15.67v29.73
			c-0.84,0.22-1.46,0.98-1.46,1.89c0,0.18,0.03,0.35,0.08,0.51L588.85,172.05z M616.99,154.79v-29.73l27.14,15.67v31.33
			l-25.75-14.86c0.04-0.16,0.08-0.33,0.08-0.51C618.45,155.77,617.83,155.01,616.99,154.79z M645.12,173.21l27.14-15.67v31.33
			l-27.14,15.67V173.21z M645.12,205.7l27.14-15.67v31.33l-27.14,15.67V205.7z M673.26,221.36v-31.33l13.57,7.83l12.18,7.03
			c-0.04,0.16-0.08,0.33-0.08,0.51c0,0.91,0.62,1.67,1.46,1.89v29.73L673.26,221.36z M701.4,207.3c0.34-0.09,0.65-0.26,0.89-0.51
			l26.24,15.15v31.33l-27.14-15.67V207.3z M728.53,255.01L728.53,255.01l0.5-0.29l0.5,0.29v0l26.64,15.38l-27.14,15.67l-27.14-15.67
			L728.53,255.01z M701.4,271.25l27.14,15.67v31.33l-27.14-15.67V271.25z M756.67,303.74v31.33l-26.24,15.15
			c-0.24-0.24-0.55-0.42-0.89-0.51v-30.31L756.67,303.74z M590.32,107.95c0-0.18-0.03-0.35-0.08-0.51l26.5-15.3l0.25-0.14V27.05
			l26.08-15.06c0.36,0.5,0.94,0.83,1.6,0.83c1.08,0,1.96-0.88,1.96-1.96c0-0.91-0.62-1.67-1.46-1.89v-31.83L617.03-6.62v-31.91
			L587.9-55.35v33.64l27.61,15.94L588.35,9.91L562.1-5.25c0.04-0.16,0.08-0.33,0.08-0.51c0-1.08-0.88-1.96-1.96-1.96
			c-1.08,0-1.96,0.88-1.96,1.96c0,0.91,0.62,1.67,1.46,1.89v29.73l0,0v33.07l-27.64,15.96l-27.14-15.67l27.39-15.81l0.25-0.14V10.77
			l0.5-0.29l-0.5-0.29v-31.91l27.89-16.1l0.25-0.14V-71.6l-28.89,16.68l-0.25,0.14v31.91l-27.14-15.67v-0.58l-0.5,0.29l-28.64-16.53
			v31.46c-0.34,0.09-0.65,0.27-0.89,0.51l-26.24-15.15v-33.06l-28.14,16.24v-0.01l-28.89,16.68l-0.25,0.14v31.91l-27.14-15.67v-0.58
			l-0.5,0.29l-0.5-0.29v0.58L335.13-6.34l-28.64-16.53v33.06l-27.14,15.67V-6.05l-29.14-16.82v0l-28.14-16.24v33.07L195.84,9.1
			c-0.36-0.36-0.85-0.58-1.39-0.58c-1.08,0-1.96,0.88-1.96,1.96s0.88,1.96,1.96,1.96c0.55,0,1.04-0.22,1.39-0.58l26.24,15.15v33.07
			l28.89-16.68l0.25-0.14V11.35l27.14,15.67v33.06l27.24-15.73c0.24,0.24,0.55,0.42,0.89,0.51v30.89l29.14,16.82V60.08l28.14,16.24
			V42.68l-27.64-15.95l27.13-15.66l28.64,16.53V-5.47l27.14-15.67v63.82l-27.89,16.1l-0.25,0.14v33.64l27.24-15.73
			c0.36,0.36,0.85,0.58,1.39,0.58c1.08,0,1.96-0.88,1.96-1.96c0-0.91-0.62-1.67-1.46-1.89V43.26l27.89-16.1l0.25-0.14V-4.89
			l27.14,15.67v30.31c-0.84,0.22-1.46,0.98-1.46,1.89c0,0.18,0.03,0.35,0.08,0.51l-26.5,15.3l-0.25,0.14v33.64l28.64-16.53
			l28.14,16.24l28.14-16.24l28.14,16.24l27.64-15.96v29.73c-0.84,0.22-1.46,0.98-1.46,1.89c0,1.08,0.88,1.96,1.96,1.96
			C589.44,109.91,590.32,109.03,590.32,107.95z M615.99,91.41l-26.24,15.15c-0.24-0.24-0.55-0.42-0.89-0.51V75.75l0.5-0.29l0,0
			l26.64-15.38V91.41z M560.72,27.59l27.14,15.67v31.33l-27.14-15.67V27.59z M588.85,43.26l27.14-15.67v31.33l-27.14,15.67V43.26z
			 M615.99,26.44l-27.14,15.67V10.78l27.14-15.67V26.44z M644.17-21.13V8.96c-0.84,0.22-1.46,0.98-1.46,1.89
			c0,0.06,0.01,0.12,0.02,0.18l-25.69,14.83V-5.46L644.17-21.13z M588.9-53.62l27.14,15.67v31.33L588.9-22.28V-53.62z M560.72-3.87
			c0.34-0.09,0.65-0.26,0.89-0.51l26.24,15.15V42.1l-27.14-15.67V-3.87z M503.95,26.15l-27.14-15.67l12.33-7.12l14.81-8.55
			l27.14,15.67l-12.33,7.12L503.95,26.15z M476.31-20.11c0.34-0.09,0.65-0.26,0.89-0.51l25.74,14.86L476.31,9.62V-20.11z
			 M503.44-6.63L477.7-21.49c0.04-0.16,0.08-0.33,0.08-0.51c0-0.18-0.03-0.35-0.08-0.51l25.75-14.87V-6.63z M503.44,27.02v31.33
			L477.7,43.48c0.04-0.16,0.08-0.33,0.08-0.51c0-0.91-0.62-1.67-1.46-1.89V11.35L503.44,27.02z M476.31,44.86
			c0.34-0.09,0.65-0.27,0.89-0.51l25.74,14.86l-26.64,15.38V44.86z M531.58,42.68l-27.14,15.67V27.02l27.14-15.67V42.68z
			 M532.58-54.2l27.14-15.67v31.33l-27.14,15.67V-54.2z M531.58-21.72V9.62L504.44-6.05v-31.33L531.58-21.72z M502.94-38.25
			L477.2-23.39c-0.24-0.24-0.55-0.42-0.89-0.51v-29.73L502.94-38.25z M447.17-69.86v31.33l-27.14,15.67v-31.32L447.17-69.86z
			 M362.76-21.14v31.33l-27.14,15.67V-5.47L362.76-21.14z M307.49-21.14l27.14,15.67v31.33l-13.57-7.83l-13.57-7.83V-21.14z
			 M334.63,58.35l-13.57-7.83l-12.18-7.03c0.04-0.16,0.08-0.33,0.08-0.51c0-0.91-0.62-1.67-1.46-1.89V11.35l13.57,7.83l13.57,7.83
			V58.35z M278.36,25.86l-27.14-15.67v-31.33l27.14,15.67V25.86z M223.09-37.39l27.14,15.67V9.62L223.09-6.05V-37.39z M196.34,9.97
			l26.25-15.15l27.14,15.67l-12.33,7.12l-14.81,8.55l-26.25-15.15c0.04-0.16,0.08-0.33,0.08-0.51
			C196.41,10.3,196.38,10.13,196.34,9.97z M250.22,42.68l-27.14,15.67V27.02l27.14-15.67V42.68z M279.36,58.35V27.01l27.14-15.67
			v29.73c-0.84,0.22-1.46,0.98-1.46,1.89c0,0.18,0.03,0.35,0.08,0.51L279.36,58.35z M334.63,90.83l-27.14-15.67V44.86
			c0.34-0.09,0.65-0.26,0.89-0.51l12.67,7.32l13.57,7.83V90.83z M362.76,74.59l-27.14-15.67V27.59l27.14,15.67V74.59z M390.9,25.86
			l-27.14-15.67v-31.33L390.9-5.47V25.86z M391.9-6.63v-31.33l27.14-15.67v31.33L391.9-6.63z M447.17-37.37v31.32L420.04,9.62
			v-31.32L447.17-37.37z M391.9,90.84V59.51l27.14-15.67v29.73c-0.84,0.22-1.46,0.98-1.46,1.89c0,0.18,0.03,0.35,0.08,0.51
			L391.9,90.84z M447.17,26.44l-27.14,15.67V10.77l27.14-15.67V26.44z M448.17-37.38l25.75,14.86c-0.04,0.16-0.08,0.33-0.08,0.51
			c0,0.91,0.62,1.67,1.46,1.89V9.62L448.17-6.05V-37.38z M448.17,59.51l26.24-15.15c0.24,0.24,0.55,0.42,0.89,0.51v30.31
			l-27.14,15.67V59.51z M503.94,91.13l-27.14-15.67l26.64-15.38v0l0.5-0.29l0.5,0.29v0l26.64,15.38L503.94,91.13z M533.08,75.46
			l27.14-15.67l27.14,15.67l-27.14,15.67L533.08,75.46z"/>
	</g>
</g>
</svg>
